<?xml version="1.0" encoding="utf-8"?>
<!-- Generator: Adobe Illustrator 23.0.2, SVG Export Plug-In . SVG Version: 6.00 Build 0)  -->
<svg version="1.1" id="Layer_1" xmlns="http://www.w3.org/2000/svg" xmlns:xlink="http://www.w3.org/1999/xlink" x="0px" y="0px"
	 viewBox="0 0 66.4 66.4" style="enable-background:new 0 0 66.4 66.4;" xml:space="preserve">
<style type="text/css">
	.st0{fill:#E66563;}
</style>
<g>
	<path class="st0" d="M33.2,0C14.9,0,0,14.9,0,33.2s14.9,33.2,33.2,33.2s33.2-14.9,33.2-33.2S51.5,0,33.2,0z M33.2,59.4
		C18.7,59.4,7,47.6,7,33.2C7,18.7,18.8,7,33.2,7s26.2,11.8,26.2,26.2S47.6,59.4,33.2,59.4z"/>
	<path class="st0" d="M33.1,45.6c-1.4,0-2.5,0.5-3.5,1.5c-0.9,1-1.4,2.2-1.4,3.6c0,1.6,0.5,2.8,1.5,3.8c1,0.9,2.1,1.3,3.4,1.3
		s2.4-0.5,3.4-1.4s1.5-2.2,1.5-3.7c0-1.4-0.5-2.6-1.4-3.6C35.7,46.1,34.5,45.6,33.1,45.6z"/>
	<path class="st0" d="M33.3,12.4c-1.5,0-2.8,0.5-3.7,1.6c-0.9,1-1.4,2.4-1.4,4.2c0,1.1,0.1,2.9,0.2,5.6l0.8,13.1
		c0.2,1.8,0.4,3.2,0.9,4.1c0.5,1.2,1.5,1.8,2.9,1.8c1.3,0,2.3-0.7,2.9-1.9c0.5-1,0.7-2.3,0.9-4l1.1-13.4c0.1-1.3,0.2-2.5,0.2-3.8
		c0-2.2-0.3-3.9-0.8-5.1C36.8,13.6,35.7,12.4,33.3,12.4z"/>
</g>
</svg>
